<!-- Generated by IcoMoon.io -->
<svg version="1.1" xmlns="http://www.w3.org/2000/svg" width="63" height="60" viewBox="0 0 34 32">
<path fill="#6abc6d" d="M14.911 23.052c-0.417 0.904-1.288 0.792-1.288 0.792s-0.522-0.867-0.105-1.771c0.417-0.904 1.616-1.502 1.616-1.502s0.194 1.577-0.223 2.481h0z"></path>
<path fill="#1d1d1b" d="M23.533 19.431c0.475-0.013 0.939-0.034 1.391-0.062 3.062-0.803 5.765-2.083 8.042-3.811 0.17-0.129 0.17-0.337 0.001-0.466s-0.444-0.129-0.613-0c-3.447 2.615-7.501 3.831-11.219 4.329 0.841 0.031 1.646 0.031 2.399 0.011h0z"></path>
<path fill="#1d1d1b" d="M24.948 17.591c2.68-1.089 5.015-2.67 6.753-4.571 0.137-0.149 0.088-0.355-0.108-0.459s-0.467-0.067-0.603 0.082c-3.44 3.762-9.084 6.008-15.1 6.008-0.271 0-0.542-0.005-0.811-0.014 1.081 0.252 2.154 0.434 3.198 0.56 2.333-0.222 4.604-0.766 6.672-1.607h-0z"></path>
<path fill="#1d1d1b" d="M32.506 18.437c-0.039 0.011-3.984 1.128-9.161 1.269-4.757 0.13-11.548-0.565-16.885-4.615-0.17-0.129-0.444-0.128-0.613 0s-0.169 0.338 0.001 0.466c1.122 0.851 2.347 1.593 3.667 2.223-3.482-0.981-6.546-2.755-8.725-5.138-0.137-0.15-0.407-0.186-0.603-0.082s-0.245 0.309-0.108 0.459c1.738 1.901 4.073 3.481 6.753 4.571 1.96 0.797 4.102 1.327 6.307 1.569 0.484 0.142 0.977 0.272 1.479 0.39 0.228 0.053 0.458 0.103 0.69 0.151-5.084-0.159-8.953-1.251-9-1.264-0.224-0.064-0.474 0.022-0.559 0.192s0.029 0.361 0.253 0.425c0.166 0.047 4.118 1.166 9.436 1.311 0.373 0.010 0.742 0.015 1.109 0.015 0.973 0 1.927-0.036 2.86-0.108 0.933 0.071 1.888 0.108 2.862 0.108 0.367 0 0.737-0.005 1.109-0.015 5.318-0.145 9.27-1.263 9.436-1.311 0.224-0.064 0.337-0.255 0.253-0.425s-0.335-0.256-0.559-0.192h-0z"></path>
<path fill="#006837" d="M24.127 7.114l-0.001 0.003c-0.034 0.136-0.219 0.163-0.292 0.043-0.067-0.109-0.135-0.217-0.204-0.324-0.198-0.307-0.405-0.606-0.62-0.901-0.107-0.147-0.216-0.292-0.326-0.437s-0.223-0.287-0.336-0.428c-0.228-0.283-0.462-0.56-0.703-0.83s-0.49-0.534-0.748-0.79c-0.258-0.255-0.524-0.501-0.804-0.732-0.14-0.115-0.283-0.226-0.431-0.331-0.082-0.058-0.166-0.114-0.251-0.168-0.010-0.007-0.020 0.008-0.010 0.015 0.081 0.060 0.159 0.122 0.236 0.186 0.138 0.115 0.272 0.235 0.401 0.36 0.259 0.248 0.503 0.512 0.737 0.783s0.46 0.55 0.677 0.834c0.217 0.285 0.427 0.575 0.629 0.87 0.101 0.147 0.2 0.296 0.298 0.446s0.193 0.301 0.287 0.452c0.187 0.303 0.367 0.611 0.536 0.923 0.067 0.124 0.133 0.25 0.197 0.375 0.060 0.118-0.043 0.251-0.174 0.226-0.013-0.002-0.027-0.006-0.040-0.009-3.109-0.764-4.357-2.358-5.153-3.887-0.751-1.443-1.1-2.829-2.229-3.406-0.067-0.034-0.055-0.133 0.018-0.151 5.145-1.258 9.334 2.729 8.308 6.878z"></path>
<path fill="#6abc6d" d="M0.969 11.323l4.606-3.703c0.1-0.081 0.159-0.202 0.159-0.331v-5.579c0-0.235 0.192-0.426 0.428-0.426h2.514c0.237 0 0.429 0.191 0.429 0.426v2.179c0 0.358 0.418 0.557 0.698 0.331l4.982-4.005c0.087-0.069 0.215-0.038 0.261 0.063l0.001 0.002c0.099 0.215 0.261 0.39 0.47 0.505 0.522 0.29 0.821 1.007 1.198 1.915 0.020 0.048-0.029 0.097-0.078 0.076-0.21-0.086-0.457-0.056-0.642 0.093l-11.158 8.971c-0.113 0.091-0.254 0.141-0.4 0.141h-3.234c-0.351 0-0.506-0.438-0.234-0.657h-0.001zM24.147 8.029c0.003-0.003 0.006-0.007 0.008-0.010 0.45-0.076 0.816-0.399 0.943-0.839l0.002-0.008c0.069-0.244 0.124-0.491 0.163-0.739 0.024-0.15 0.203-0.219 0.322-0.123l6.235 5.013c0.272 0.219 0.117 0.657-0.234 0.657h-3.234c-0.146 0-0.287-0.050-0.4-0.141l-4.295-3.453c0.188-0.073 0.357-0.194 0.49-0.358zM14.947 7.301h1.173v1.166h-1.173v-1.166zM16.669 7.301h1.173v1.166h-1.173v-1.166zM14.947 5.541h1.173v1.166h-1.173v-1.166zM16.669 6.707h1.173v-1.166h-1.173v1.166z"></path>
<path fill="#006837" d="M23.438 16.463c-0.57 0-1.059-0.116-1.469-0.348-0.407-0.234-0.721-0.559-0.943-0.976-0.219-0.419-0.328-0.904-0.328-1.457 0-0.555 0.109-1.040 0.328-1.457 0.221-0.419 0.536-0.744 0.943-0.976 0.41-0.234 0.899-0.351 1.469-0.351s1.058 0.117 1.465 0.351c0.41 0.232 0.724 0.557 0.943 0.976 0.221 0.417 0.332 0.902 0.332 1.457 0 0.552-0.111 1.038-0.332 1.457-0.219 0.417-0.533 0.742-0.943 0.976-0.407 0.232-0.896 0.348-1.465 0.348zM23.448 15.168c0.207 0 0.383-0.063 0.526-0.19s0.253-0.302 0.328-0.527c0.078-0.225 0.117-0.484 0.117-0.779 0-0.3-0.039-0.562-0.117-0.786-0.075-0.225-0.185-0.4-0.328-0.527s-0.319-0.19-0.526-0.19c-0.214 0-0.395 0.063-0.544 0.19-0.146 0.126-0.258 0.302-0.335 0.527-0.075 0.225-0.113 0.487-0.113 0.786 0 0.295 0.038 0.555 0.113 0.779 0.078 0.225 0.19 0.4 0.335 0.527 0.148 0.126 0.33 0.19 0.544 0.19z"></path>
<path fill="#006837" d="M14.924 16.361v-5.392h1.727v2.008h0.381l1.317-2.008h1.999l-1.826 2.7 1.843 2.692h-2.023l-1.19-1.79h-0.501v1.79h-1.727z"></path>
<path fill="#006837" d="M8.787 16.361v-7.189h5.042v1.411h-3.294v1.474h3.037v1.415h-3.037v1.478h3.294v1.411h-5.042z"></path>
<path fill="#000" d="M33.372 27.347c0 0.67-0.123 1.246-0.37 1.728-0.246 0.48-0.584 0.85-1.014 1.109-0.427 0.257-0.913 0.386-1.457 0.386-0.546 0-1.034-0.129-1.464-0.386-0.427-0.259-0.764-0.63-1.011-1.112s-0.37-1.057-0.37-1.725c0-0.67 0.123-1.245 0.37-1.725 0.247-0.482 0.583-0.852 1.011-1.109 0.429-0.259 0.917-0.389 1.464-0.389 0.544 0 1.030 0.13 1.457 0.389 0.429 0.257 0.767 0.627 1.014 1.109 0.246 0.48 0.37 1.055 0.37 1.725zM32.429 27.347c0-0.511-0.083-0.94-0.25-1.29-0.164-0.351-0.39-0.617-0.678-0.796-0.286-0.182-0.609-0.273-0.971-0.273-0.364 0-0.688 0.091-0.974 0.273-0.286 0.18-0.512 0.445-0.678 0.796-0.164 0.349-0.247 0.779-0.247 1.29s0.082 0.942 0.247 1.293c0.166 0.349 0.392 0.615 0.678 0.796 0.286 0.18 0.61 0.27 0.974 0.27 0.362 0 0.685-0.090 0.971-0.27 0.288-0.182 0.514-0.447 0.678-0.796 0.166-0.351 0.25-0.782 0.25-1.293z"></path>
<path fill="#000" d="M20.786 32v-2.319h0.416c0.142-0.118 0.274-0.287 0.398-0.506s0.228-0.514 0.314-0.885c0.086-0.372 0.146-0.849 0.179-1.431l0.148-2.65h3.892v5.471h0.715v2.31h-0.912v-1.507h-4.237v1.516h-0.912zM22.323 29.681h2.896v-4.656h-2.117l-0.099 1.835c-0.027 0.443-0.071 0.841-0.133 1.195-0.060 0.353-0.137 0.666-0.231 0.937-0.092 0.27-0.198 0.499-0.317 0.689z"></path>
<path fill="#000" d="M17.782 30.569c-0.423 0-0.801-0.072-1.134-0.218-0.331-0.145-0.593-0.346-0.786-0.603-0.191-0.259-0.294-0.56-0.308-0.901h0.968c0.012 0.186 0.075 0.347 0.188 0.484 0.115 0.135 0.265 0.239 0.45 0.312s0.39 0.11 0.616 0.11c0.249 0 0.468-0.043 0.659-0.129 0.193-0.086 0.344-0.205 0.453-0.358 0.109-0.155 0.163-0.334 0.163-0.536 0-0.21-0.054-0.395-0.163-0.554-0.107-0.161-0.264-0.288-0.471-0.38-0.205-0.092-0.454-0.138-0.746-0.138h-0.533v-0.772h0.533c0.234 0 0.44-0.042 0.616-0.126 0.179-0.084 0.318-0.2 0.419-0.349 0.101-0.151 0.151-0.328 0.151-0.53 0-0.194-0.044-0.363-0.132-0.505-0.086-0.145-0.21-0.258-0.37-0.34-0.158-0.082-0.345-0.122-0.561-0.122-0.205 0-0.398 0.038-0.576 0.113-0.177 0.073-0.32 0.18-0.431 0.319-0.111 0.137-0.171 0.301-0.179 0.493h-0.921c0.010-0.339 0.111-0.637 0.302-0.895 0.193-0.257 0.448-0.459 0.764-0.603s0.668-0.218 1.054-0.218c0.405 0 0.754 0.079 1.048 0.236 0.296 0.155 0.524 0.363 0.684 0.622 0.162 0.259 0.242 0.543 0.24 0.852 0.002 0.351-0.097 0.649-0.296 0.895-0.197 0.245-0.46 0.409-0.789 0.493v0.049c0.419 0.063 0.744 0.229 0.974 0.496 0.232 0.268 0.347 0.599 0.345 0.996 0.002 0.345-0.095 0.654-0.29 0.928-0.193 0.274-0.457 0.489-0.792 0.646-0.335 0.155-0.718 0.233-1.149 0.233z"></path>
<path fill="#000" d="M14.285 24.21v6.274h-0.952v-6.274h0.952z"></path>
<path fill="#000" d="M6.892 30.484v-6.274h0.952v2.726h3.146v-2.726h0.955v6.274h-0.955v-2.736h-3.146v2.736h-0.952z"></path>
<path fill="#000" d="M5.819 24.21v0.815h-2.983v5.459h-0.952v-6.274h3.935z"></path>
</svg>
